<svg xmlns="http://www.w3.org/2000/svg" width="10" height="10" viewBox="0 0 10 10">
  <g id="ico_download" transform="translate(-2.867 -3.06)">
    <path id="Path_33761" data-name="Path 33761" d="M12.407,8.073,8.9,11.7a.749.749,0,0,1-1.105,0L4.279,8.073a.919.919,0,0,1,.553-1.563H6.176a.574.574,0,0,0,.542-.6V3.962a.861.861,0,0,1,.813-.9H9.156a.861.861,0,0,1,.813.9V5.909a.574.574,0,0,0,.542.6h1.344A.919.919,0,0,1,12.407,8.073Z" transform="translate(-0.461)" fill="#fff"/>
    <rect id="Rectangle_19859" data-name="Rectangle 19859" width="10" height="0.899" rx="0.45" transform="translate(2.867 12.161)" fill="#fff"/>
  </g>
</svg>
