<?xml version="1.0" encoding="UTF-8"?>
<svg id="Layer_1" xmlns="http://www.w3.org/2000/svg" version="1.1" xmlns:xlink="http://www.w3.org/1999/xlink" viewBox="0 0 460 310">
  <!-- Generator: Adobe Illustrator 30.4.0, SVG Export Plug-In . SVG Version: 2.1.4 Build 226)  -->
  <defs>
    <linearGradient id="linear-gradient" x1="-1459.86" y1="2463.95" x2="461.16" y2="2463.95" gradientTransform="translate(0 -2244)" gradientUnits="userSpaceOnUse">
      <stop offset="0" stop-color="#faaf16" stop-opacity="0"/>
      <stop offset=".05" stop-color="#ffdd6a"/>
      <stop offset=".93" stop-color="#ff4500"/>
      <stop offset="1" stop-color="#f90" stop-opacity="0"/>
    </linearGradient>
    <linearGradient id="linear-gradient1" x1="-1459.86" y1="2336.43" x2="461.16" y2="2336.43" gradientTransform="translate(0 -2244)" gradientUnits="userSpaceOnUse">
      <stop offset="0" stop-color="#feb5b6" stop-opacity="0"/>
      <stop offset=".08" stop-color="#ff484a"/>
      <stop offset=".92" stop-color="#ffdde0"/>
      <stop offset="1" stop-color="#ff919b" stop-opacity="0"/>
    </linearGradient>
    <linearGradient id="linear-gradient2" x1="-1459.86" y1="2298.56" x2="461.16" y2="2298.56" gradientTransform="translate(0 -2244)" gradientUnits="userSpaceOnUse">
      <stop offset="0" stop-color="#63d600" stop-opacity="0"/>
      <stop offset=".09" stop-color="#b3ff72"/>
      <stop offset=".92" stop-color="#12b549"/>
      <stop offset="1" stop-color="#12b549" stop-opacity="0"/>
    </linearGradient>
    <linearGradient id="linear-gradient3" x1="-1459.86" y1="2477.45" x2="461.16" y2="2477.45" gradientTransform="translate(0 -2244)" gradientUnits="userSpaceOnUse">
      <stop offset="0" stop-color="#9e6eff" stop-opacity="0"/>
      <stop offset=".07" stop-color="#6a21ff"/>
      <stop offset=".91" stop-color="#ceb5ff"/>
      <stop offset="1" stop-color="#63c" stop-opacity="0"/>
    </linearGradient>
  </defs>
  <rect width="460" height="310" fill="#fff" fill-opacity="0"/>
  <path d="M460.5,147.45v45h-55.38c-4.2,0-8.63,5.1-12.94,12.25-4.33,7.17-8.55,16.39-12.31,24.61-2.39,5.22-4.88,10.67-7.6,16.1-11.93,23.82-28.18,47.05-58.57,47.05-19.43,0-33.07-9.49-43.51-22.56-9.61-12.03-16.5-27.1-22.67-40.59-1.26-2.76-2.57-5.63-3.92-8.49-6.55-13.9-14-27.74-20.87-28.34l-222.73.11v-45.02l222.27-.12c23.21,0,38.18,13.55,49.27,30.57,6.74,10.33,12.05,21.95,16.91,32.58,1.54,3.38,3.17,6.93,4.85,10.44,6.47,13.53,13.73,26.42,20.4,26.42,7.37,0,15.46-15.73,22.41-30.68.97-2.09,1.92-4.17,2.84-6.18,5.12-11.21,10.74-23.5,18.02-34.24,10.31-15.26,23.96-27.38,44.23-28.77v-.14h59.3Z" fill="url(#linear-gradient)" isolation="isolate" opacity=".5"/>
  <path d="M460.5,82.82v45h-.5l-155.76.11c-41.21,0-62.99-7.56-82.22-14.24-18.14-6.31-33.82-11.76-67.44-11.76s-49.29,5.45-67.44,11.76c-19.22,6.68-41,14.24-82.21,14.24H0v-45h6.42c16.3-.08,28.31-1.46,38.49-3.6,10.18-2.14,18.52-5.04,27.46-8.15,18.26-6.34,38.82-13.48,76.16-14.18,1.97-.04,3.99-.06,6.05-.06,41.22,0,63,7.56,82.22,14.24,10.33,3.59,19.86,6.9,32.36,9.09,9.45,1.65,20.6,2.66,35.08,2.66l155.76-.11s.5,0,.5,0Z" fill="url(#linear-gradient1)" isolation="isolate" opacity=".5"/>
  <path d="M460.5,14.12v45h-97.84c-14.85,0-25.05-2.92-33.25-5.27-10.37-2.97-16.09-4.61-32.46.36-9.66,2.94-13.94,8.13-21.27,17.8-1.93,2.55-4.07,5.38-6.52,8.25-9.46,11.07-23.63,22.86-49.04,22.86-32.23.01-46.1-17.85-56.22-30.9-5.27-6.79-9.19-11.83-15.37-15.23-1.96-1.09-4.16-2-6.7-2.76-16.03-4.78-20.55-3.52-30.44-.75-12.64,3.82-25.78,5.73-38.99,5.64H0V14.12h72.4c12.59,0,19.54-1.94,26.9-3.99,15.75-4.4,28.94-6.9,55.37.97,24.38,7.25,36.16,22.44,44.77,33.52,8.48,10.93,10.85,13.5,20.68,13.5,9.32,0,11.4-2.32,19.69-13.27,8.43-11.13,19.97-26.37,44.07-33.7,29.08-8.83,44.41-4.44,57.93-.56,6.89,1.97,12.32,3.53,20.86,3.53,0,0,97.83,0,97.83,0Z" fill="url(#linear-gradient2)" isolation="isolate" opacity=".5"/>
  <path d="M460.5,211.51v44.78h-44.65c-17.24,1.62-31.53-3.55-43.58-10.88-9.42-5.72-17.47-12.76-24.5-18.89-4.4-3.84-8.21-7.09-11.66-9.74-10.24-7.92-17.25-10.67-26.55-8.46-7.27,1.74-11.92,5.55-16.26,12.72-3.1,5.08-6.03,11.84-9.64,20.75-3.53,8.71-7.58,18.7-13.47,28.11-8.88,14.18-21.94,27.05-43.71,32.24-37.86,9.02-62.95-11.55-81.27-26.56-14.44-11.83-23.97-19.14-36.25-19.31v.02H0v-45h108.43l.1-.02c29.2,0,49.16,16.37,65.2,29.51,17.19,14.08,26.87,21.27,42.32,17.58,12.42-2.96,17.2-12,25.9-33.47.54-1.33,1.09-2.69,1.65-4.07,5.84-14.2,13.45-30.86,27.94-42.8,7.26-5.97,16.24-10.76,27.59-13.47,5.39-1.31,10.92-1.98,16.48-1.99,16.36,0,29.92,6.1,41.36,13.8,7.69,5.16,14.42,11.04,20.41,16.27,5.77,5.04,10.54,9.06,14.8,12.07,5.97,4.23,10.91,6.48,16.15,6.81h52.17Z" fill="url(#linear-gradient3)" isolation="isolate" opacity=".5"/>
</svg>