<?xml version="1.0" encoding="UTF-8"?>
<svg xmlns="http://www.w3.org/2000/svg" version="1.1" viewBox="0 0 252 714">
  <!-- Generator: Adobe Illustrator 28.6.0, SVG Export Plug-In . SVG Version: 1.2.0 Build 709)  -->
  <g>
    <g id="Layer_1">
      <rect id="Rectangle_12627" width="252" height="714" fill="#fff" fill-opacity="0"/>
      <g id="Group_19322" opacity=".3">
        <rect id="Rectangle_11960" x="210" y="378" width="42" height="42" fill="#2f3742" isolation="isolate" opacity=".3"/>
        <rect id="Rectangle_11961" x="210" y="630" width="42" height="42" fill="#2f3742" isolation="isolate" opacity=".5"/>
        <rect id="Rectangle_11962" x="210" y="546" width="42" height="42" fill="#2f3742" isolation="isolate" opacity=".4"/>
        <rect id="Rectangle_11963" x="210" y="294" width="42" height="42" fill="#2f3742" isolation="isolate" opacity=".2"/>
        <rect id="Rectangle_11964" x="210" y="504" width="42" height="42" fill="#2f3742" isolation="isolate" opacity=".35"/>
        <rect id="Rectangle_11965" x="210" y="672" width="42" height="42" fill="#2f3742" isolation="isolate" opacity=".55"/>
        <rect id="Rectangle_11966" x="210" y="588" width="42" height="42" fill="#2f3742" isolation="isolate" opacity=".45"/>
        <rect id="Rectangle_11967" x="168" y="588" width="42" height="42" fill="#2f3742" isolation="isolate" opacity=".45"/>
        <rect id="Rectangle_11999" x="42" y="588" width="42" height="42" fill="#2f3742" isolation="isolate" opacity=".45"/>
        <rect id="Rectangle_11968" x="210" y="336" width="42" height="42" fill="#2f3742" isolation="isolate" opacity=".25"/>
        <rect id="Rectangle_11969" x="210" y="252" width="42" height="42" fill="#2f3742" isolation="isolate" opacity=".1"/>
        <rect id="Rectangle_11970" x="168" y="546" width="42" height="42" fill="#2f3742" isolation="isolate" opacity=".3"/>
        <rect id="Rectangle_12000" x="42" y="546" width="42" height="42" fill="#2f3742" isolation="isolate" opacity=".3"/>
        <rect id="Rectangle_11971" x="168" y="630" width="42" height="42" fill="#2f3742" isolation="isolate" opacity=".5"/>
        <rect id="Rectangle_11998" x="42" y="630" width="42" height="42" fill="#2f3742" isolation="isolate" opacity=".5"/>
        <rect id="Rectangle_11972" x="84" y="672" width="42" height="42" fill="#2f3742" isolation="isolate" opacity=".65"/>
        <rect id="Rectangle_11973" x="168" y="462" width="42" height="42" fill="#2f3742" isolation="isolate" opacity=".1"/>
        <rect id="Rectangle_12002" x="42" y="462" width="42" height="42" fill="#2f3742" isolation="isolate" opacity=".1"/>
        <rect id="Rectangle_11974" x="168" y="672" width="42" height="42" fill="#2f3742" isolation="isolate" opacity=".6"/>
        <rect id="Rectangle_11997" x="42" y="672" width="42" height="42" fill="#2f3742" isolation="isolate" opacity=".6"/>
        <rect id="Rectangle_11975" x="84" y="630" width="42" height="42" fill="#2f3742" isolation="isolate" opacity=".6"/>
        <rect id="Rectangle_11976" x="168" y="504" width="42" height="42" fill="#2f3742" isolation="isolate" opacity=".2"/>
        <rect id="Rectangle_12001" x="42" y="504" width="42" height="42" fill="#2f3742" isolation="isolate" opacity=".2"/>
        <rect id="Rectangle_11977" x="84" y="462" width="42" height="42" fill="#2f3742" isolation="isolate" opacity=".5"/>
        <rect id="Rectangle_11978" x="126" y="588" width="42" height="42" fill="#2f3742" isolation="isolate" opacity=".4"/>
        <rect id="Rectangle_12005" y="588" width="42" height="42" fill="#2f3742" isolation="isolate" opacity=".4"/>
        <rect id="Rectangle_11979" x="126" y="546" width="42" height="42" fill="#2f3742" isolation="isolate" opacity=".4"/>
        <rect id="Rectangle_12006" y="546" width="42" height="42" fill="#2f3742" isolation="isolate" opacity=".4"/>
        <rect id="Rectangle_11980" x="126" y="630" width="42" height="42" fill="#2f3742" isolation="isolate" opacity=".6"/>
        <rect id="Rectangle_12007" y="630" width="42" height="42" fill="#2f3742" isolation="isolate" opacity=".6"/>
        <rect id="Rectangle_11981" x="84" y="294" width="42" height="42" fill="#2f3742" isolation="isolate" opacity=".5"/>
        <rect id="Rectangle_11982" x="126" y="462" width="42" height="42" fill="#2f3742" isolation="isolate" opacity=".2"/>
        <rect id="Rectangle_12008" y="462" width="42" height="42" fill="#2f3742" isolation="isolate" opacity=".2"/>
        <rect id="Rectangle_11983" x="210" y="462" width="42" height="42" fill="#2f3742" isolation="isolate" opacity=".2"/>
        <rect id="Rectangle_11984" x="126" y="672" width="42" height="42" fill="#2f3742" isolation="isolate" opacity=".7"/>
        <rect id="Rectangle_12009" y="672" width="42" height="42" fill="#2f3742" isolation="isolate" opacity=".7"/>
        <rect id="Rectangle_11985" x="126" y="504" width="42" height="42" fill="#2f3742" isolation="isolate" opacity=".3"/>
        <rect id="Rectangle_12010" y="504" width="42" height="42" fill="#2f3742" isolation="isolate" opacity=".3"/>
        <rect id="Rectangle_11986" x="84" y="504" width="42" height="42" fill="#2f3742" isolation="isolate" opacity=".5"/>
        <rect id="Rectangle_11987" x="126" y="420" width="42" height="42" fill="#2f3742" isolation="isolate" opacity=".1"/>
        <rect id="Rectangle_12011" y="420" width="42" height="42" fill="#2f3742" isolation="isolate" opacity=".1"/>
        <rect id="Rectangle_11988" x="210" y="420" width="42" height="42" fill="#2f3742" isolation="isolate" opacity=".1"/>
        <rect id="Rectangle_11989" x="168" y="420" width="42" height="42" fill="#2f3742" fill-opacity="0"/>
        <rect id="Rectangle_12003" x="42" y="420" width="42" height="42" fill="#2f3742" fill-opacity="0"/>
        <rect id="Rectangle_11990" x="84" y="546" width="42" height="42" fill="#2f3742" isolation="isolate" opacity=".1"/>
        <rect id="Rectangle_11991" x="168" y="378" width="42" height="42" fill="#2f3742" isolation="isolate" opacity=".1"/>
        <rect id="Rectangle_12004" x="42" y="378" width="42" height="42" fill="#2f3742" isolation="isolate" opacity=".1"/>
        <rect id="Rectangle_11992" x="168" y="336" width="42" height="42" fill="#2f3742" isolation="isolate" opacity=".2"/>
        <rect id="Rectangle_12013" x="42" y="336" width="42" height="42" fill="#2f3742" isolation="isolate" opacity=".2"/>
        <rect id="Rectangle_11993" x="126" y="252" width="42" height="42" fill="#2f3742" isolation="isolate" opacity=".2"/>
        <rect id="Rectangle_12014" y="252" width="42" height="42" fill="#2f3742" isolation="isolate" opacity=".2"/>
        <rect id="Rectangle_11994" x="84" y="210" width="42" height="42" fill="#2f3742" isolation="isolate" opacity=".2"/>
        <rect id="Rectangle_11995" x="126" width="42" height="42" fill="#2f3742" isolation="isolate" opacity=".2"/>
        <rect id="Rectangle_11996" x="126" y="378" width="42" height="42" fill="#2f3742" fill-opacity="0"/>
        <rect id="Rectangle_12012" y="378" width="42" height="42" fill="#2f3742" fill-opacity="0"/>
      </g>
    </g>
  </g>
</svg>