<?xml version="1.0" encoding="UTF-8"?>
<svg xmlns="http://www.w3.org/2000/svg" version="1.1" viewBox="0 0 266 120">
  <!-- Generator: Adobe Illustrator 28.6.0, SVG Export Plug-In . SVG Version: 1.2.0 Build 709)  -->
  <g>
    <g id="Layer_1">
      <rect id="Rectangle_12628" width="266" height="120" fill="#fff" fill-opacity="0"/>
      <g id="Group_19233" opacity=".4">
        <rect id="Rectangle_11895" x="24" y="96" width="24" height="24" fill="#fff" isolation="isolate" opacity=".3"/>
        <rect id="Rectangle_11896" x="72" y="96" width="24" height="24" fill="#fff" isolation="isolate" opacity=".2"/>
        <rect id="Rectangle_11897" x="48" y="96" width="24" height="24" fill="#fff" isolation="isolate" opacity=".25"/>
        <rect id="Rectangle_11898" x="96" y="96" width="24" height="24" fill="#fff" isolation="isolate" opacity=".1"/>
        <rect id="Rectangle_11899" x="72" y="24" width="24" height="24" fill="#fff" isolation="isolate" opacity=".5"/>
        <rect id="Rectangle_11900" x="0" y="48" width="24" height="24" fill="#fff" isolation="isolate" opacity=".1"/>
        <rect id="Rectangle_11901" x="0" y="96" width="24" height="24" fill="#fff" isolation="isolate" opacity=".1"/>
        <rect id="Rectangle_11902" x="0" y="72" width="24" height="24" fill="#fff" fill-opacity="0"/>
        <rect id="Rectangle_11903" x="24" y="72" width="24" height="24" fill="#fff" isolation="isolate" opacity=".1"/>
        <rect id="Rectangle_11904" x="48" y="72" width="24" height="24" fill="#fff" isolation="isolate" opacity=".2"/>
        <rect id="Rectangle_11905" x="96" y="48" width="24" height="24" fill="#fff" isolation="isolate" opacity=".2"/>
        <rect id="Rectangle_11906" x="120" y="24" width="24" height="24" fill="#fff" isolation="isolate" opacity=".2"/>
        <rect id="Rectangle_11907" x="144" y="0" width="24" height="24" fill="#fff" isolation="isolate" opacity=".2"/>
        <rect id="Rectangle_11908" x="242" y="48" width="24" height="24" fill="#fff" isolation="isolate" opacity=".2"/>
        <rect id="Rectangle_11909" x="24" y="48" width="24" height="24" fill="#fff" fill-opacity="0"/>
      </g>
    </g>
  </g>
</svg>